<svg width="103" height="16" viewBox="0 0 103 16" fill="none" xmlns="http://www.w3.org/2000/svg">
<path d="M0.575 15V1.25H5.225C7.04167 1.25 8.49167 1.575 9.575 2.225C10.675 2.85833 11.45 3.65833 11.9 4.625C12.35 5.59167 12.575 6.61667 12.575 7.7C12.575 9.35 12.1833 10.8083 11.4 12.075C10.6333 13.3417 9.36667 14.225 7.6 14.725C7.06667 14.8417 6.53333 14.9167 6 14.95C5.48333 14.9833 4.81667 15 4 15H0.575ZM8.85 4.625C8.03333 3.84167 6.84167 3.45 5.275 3.45H3.025V12.775H4.625C5.69167 12.775 6.65 12.6417 7.5 12.375C8.35 12.1083 9.00833 11.5167 9.475 10.6C9.64167 10.35 9.78333 10.0083 9.9 9.575C10.0167 9.125 10.075 8.60833 10.075 8.025C10.075 6.525 9.66667 5.39167 8.85 4.625ZM22.2453 14.6C21.4953 15.0167 20.6286 15.225 19.6453 15.225C18.662 15.225 17.7953 15.0167 17.0453 14.6C16.312 14.1667 15.737 13.575 15.3203 12.825C14.9203 12.075 14.7203 11.2167 14.7203 10.25C14.7203 8.7 15.1703 7.48333 16.0703 6.6C16.9703 5.7 18.1703 5.25 19.6703 5.25C21.1703 5.25 22.362 5.7 23.2453 6.6C24.1453 7.5 24.5953 8.70833 24.5953 10.225C24.5953 11.2083 24.387 12.075 23.9703 12.825C23.5703 13.575 22.9953 14.1667 22.2453 14.6ZM21.3953 7.95C20.9286 7.4 20.3453 7.125 19.6453 7.125C18.962 7.125 18.3786 7.4 17.8953 7.95C17.4286 8.5 17.1953 9.26667 17.1953 10.25C17.1953 11.2167 17.4286 11.975 17.8953 12.525C18.362 13.0583 18.9453 13.325 19.6453 13.325C20.3786 13.325 20.9703 13.0583 21.4203 12.525C21.887 11.9917 22.1203 11.2333 22.1203 10.25C22.1203 9.25 21.8786 8.48333 21.3953 7.95ZM26.9125 5.4H28.6125L28.9125 6.1C29.0125 6.06667 29.2208 5.98333 29.5375 5.85C29.8542 5.71667 30.2292 5.59167 30.6625 5.475C31.0958 5.34167 31.5542 5.275 32.0375 5.275C33.1208 5.275 33.9458 5.6 34.5125 6.25C35.8125 5.6 36.9792 5.275 38.0125 5.275C39.3792 5.275 40.2625 5.68333 40.6625 6.5C41.0792 7.31667 41.2875 8.33333 41.2875 9.55V15H38.9125V9.25C38.9125 8.75 38.8042 8.3 38.5875 7.9C38.3708 7.5 37.9708 7.3 37.3875 7.3C37.0875 7.3 36.7708 7.35 36.4375 7.45C36.1042 7.53333 35.6792 7.68333 35.1625 7.9C35.2792 8.46667 35.3375 9.05 35.3375 9.65V15H32.9375V9.25C32.9375 8.75 32.8208 8.3 32.5875 7.9C32.3708 7.5 31.9708 7.3 31.3875 7.3C31.1542 7.3 30.8792 7.34167 30.5625 7.425C30.2625 7.49167 29.8375 7.625 29.2875 7.825V15H26.9125V5.4ZM45.8117 5.875C46.4951 5.45833 47.2284 5.25 48.0117 5.25C49.4617 5.25 50.5701 5.7 51.3367 6.6C52.1201 7.48333 52.5117 8.7 52.5117 10.25V11.175H45.9867C46.0534 11.9917 46.3367 12.5583 46.8367 12.875C47.3367 13.1917 48.0451 13.35 48.9617 13.35C49.9284 13.35 50.8117 13.25 51.6117 13.05L52.0367 14.675C50.9534 15.0583 49.8201 15.25 48.6367 15.25C46.9867 15.25 45.7284 14.7917 44.8617 13.875C43.9951 12.9583 43.5617 11.75 43.5617 10.25C43.5617 9.25 43.7701 8.375 44.1867 7.625C44.6034 6.85833 45.1451 6.275 45.8117 5.875ZM49.5617 7.75C49.1784 7.33333 48.6784 7.125 48.0617 7.125C47.5617 7.125 47.1034 7.33333 46.6867 7.75C46.2867 8.16667 46.0701 8.75 46.0367 9.5H50.1367C50.1367 8.73333 49.9451 8.15 49.5617 7.75ZM58.1273 15.225C56.894 15.225 55.6523 14.9333 54.4023 14.35L55.0773 12.475C55.644 12.675 56.219 12.8417 56.8023 12.975C57.3857 13.1083 57.869 13.175 58.2523 13.175C58.9523 13.175 59.444 13.1 59.7273 12.95C60.0107 12.8 60.1523 12.5667 60.1523 12.25C60.1523 12.0333 60.019 11.8583 59.7523 11.725C59.4857 11.5917 59.044 11.425 58.4273 11.225C57.694 11.0083 57.0773 10.7917 56.5773 10.575C56.0773 10.3417 55.644 10.0083 55.2773 9.575C54.9107 9.125 54.7273 8.55833 54.7273 7.875C54.7273 7.20833 55.0023 6.60833 55.5523 6.075C56.1023 5.525 57.1857 5.25 58.8023 5.25C59.319 5.25 59.869 5.30833 60.4523 5.425C61.0523 5.54167 61.5607 5.66667 61.9773 5.8L61.3773 7.65C60.344 7.35 59.494 7.2 58.8273 7.2C58.094 7.2 57.6023 7.26667 57.3523 7.4C57.1023 7.53333 56.9773 7.725 56.9773 7.975C56.9773 8.24167 57.1273 8.45833 57.4273 8.625C57.744 8.79167 58.2357 8.975 58.9023 9.175C59.6357 9.39167 60.2357 9.60833 60.7023 9.825C61.1857 10.0417 61.594 10.35 61.9273 10.75C62.2773 11.15 62.4523 11.6583 62.4523 12.275C62.4523 13.025 62.1273 13.7083 61.4773 14.325C60.844 14.925 59.7273 15.225 58.1273 15.225ZM69.3586 13.275C69.8419 13.275 70.4586 13.175 71.2086 12.975L71.5336 14.675C70.9503 14.8417 70.4503 14.975 70.0336 15.075C69.6336 15.175 69.2336 15.225 68.8336 15.225C67.4503 15.225 66.5253 14.9333 66.0586 14.35C65.6086 13.7667 65.3836 12.9583 65.3836 11.925V7.275H63.7836V5.4H65.3836V2.65H67.7836V5.4H71.1086V7.275H67.7836V11.875C67.7836 12.8083 68.3086 13.275 69.3586 13.275ZM73.4844 15V5.4H75.8844V15H73.4844ZM73.6094 3.325C73.9094 3.625 74.2677 3.775 74.6844 3.775C75.1177 3.775 75.476 3.625 75.7594 3.325C76.0594 3.025 76.2094 2.66667 76.2094 2.25C76.2094 1.81667 76.0594 1.45833 75.7594 1.175C75.476 0.875 75.1177 0.725 74.6844 0.725C74.2677 0.725 73.9094 0.875 73.6094 1.175C73.3094 1.45833 73.1594 1.81667 73.1594 2.25C73.1594 2.66667 73.3094 3.025 73.6094 3.325ZM84.8281 7.325H90.8281V13.575C89.6115 14.625 87.9031 15.175 85.7031 15.225C84.1365 15.225 82.8115 14.8833 81.7281 14.2C80.6448 13.5 79.8365 12.6083 79.3031 11.525C78.7698 10.4417 78.5031 9.30833 78.5031 8.125C78.5031 6.89167 78.7865 5.74167 79.3531 4.675C79.9198 3.60833 80.7448 2.75 81.8281 2.1C82.9281 1.45 84.2198 1.125 85.7031 1.125C87.3365 1.125 88.8615 1.53333 90.2781 2.35L90.6281 2.55L89.6031 4.425L89.2531 4.275C88.7865 4.025 88.2448 3.81667 87.6281 3.65C87.0281 3.46667 86.4115 3.375 85.7781 3.375C84.9448 3.375 84.1615 3.56667 83.4281 3.95C82.6948 4.31667 82.1031 4.85833 81.6531 5.575C81.2031 6.275 80.9781 7.09167 80.9781 8.025C80.9781 8.95833 81.1948 9.8 81.6281 10.55C82.0781 11.3 82.6865 11.8917 83.4531 12.325C84.2365 12.7417 85.1198 12.95 86.1031 12.95C86.6365 12.95 87.0698 12.9083 87.4031 12.825C87.7531 12.7417 88.0948 12.6083 88.4281 12.425V9.5H84.8281V7.325ZM100.631 14.6C99.8812 15.0167 99.0146 15.225 98.0312 15.225C97.0479 15.225 96.1812 15.0167 95.4312 14.6C94.6979 14.1667 94.1229 13.575 93.7062 12.825C93.3062 12.075 93.1062 11.2167 93.1062 10.25C93.1062 8.7 93.5562 7.48333 94.4562 6.6C95.3562 5.7 96.5562 5.25 98.0562 5.25C99.5562 5.25 100.748 5.7 101.631 6.6C102.531 7.5 102.981 8.70833 102.981 10.225C102.981 11.2083 102.773 12.075 102.356 12.825C101.956 13.575 101.381 14.1667 100.631 14.6ZM99.7812 7.95C99.3146 7.4 98.7312 7.125 98.0312 7.125C97.3479 7.125 96.7646 7.4 96.2812 7.95C95.8146 8.5 95.5812 9.26667 95.5812 10.25C95.5812 11.2167 95.8146 11.975 96.2812 12.525C96.7479 13.0583 97.3312 13.325 98.0312 13.325C98.7646 13.325 99.3562 13.0583 99.8062 12.525C100.273 11.9917 100.506 11.2333 100.506 10.25C100.506 9.25 100.265 8.48333 99.7812 7.95Z" fill="#7DCF68"/>
</svg>
